<svg xmlns="http://www.w3.org/2000/svg" xmlns:xlink="http://www.w3.org/1999/xlink" width="940" zoomAndPan="magnify" viewBox="0 0 705 591.000005" height="788" preserveAspectRatio="xMidYMid meet" version="1.0"><defs><g/><clipPath id="6ef0e3ce36"><path d="M 0.59375 0 L 575 0 L 575 584 L 0.59375 584 Z M 0.59375 0 " clip-rule="nonzero"/></clipPath><clipPath id="9cba10e883"><rect x="0" width="575" y="0" height="584"/></clipPath><clipPath id="af7ff7f052"><rect x="0" width="433" y="0" height="568"/></clipPath></defs><g clip-path="url(#6ef0e3ce36)"><g transform="matrix(1, 0, 0, 1, 0.000000000000000111, -0.000000000000107785)"><g clip-path="url(#9cba10e883)"><g fill="#000000" fill-opacity="1"><g transform="translate(574.052045, 39.666972)"><g><path d="M -430.832031 526.453125 C -416.457031 526.453125 -398.917969 522.347656 -378.210938 514.140625 C -357.292969 505.851562 -334.933594 493.863281 -311.125 478.183594 C -287.28125 462.476562 -263.710938 443.730469 -240.417969 421.949219 C -217.136719 400.183594 -195.554688 375.765625 -175.675781 348.6875 C -155.824219 321.652344 -139.1875 292.632812 -125.765625 261.628906 C -112.382812 230.710938 -103.804688 198.097656 -100.03125 163.777344 L -96.121094 164.207031 L -97.203125 167.992188 C -107.683594 164.996094 -118.261719 162.84375 -128.929688 161.53125 C -139.640625 160.21875 -149.683594 159.558594 -159.058594 159.558594 C -166.546875 159.558594 -173.746094 159.933594 -180.664062 160.679688 C -187.589844 161.429688 -194.613281 162.554688 -201.730469 164.050781 L -202.542969 160.203125 L -198.714844 159.300781 C -197.144531 165.972656 -196.066406 172.742188 -195.476562 179.605469 C -194.894531 186.394531 -194.601562 193.277344 -194.601562 200.253906 C -194.601562 230.125 -200.320312 259.5 -211.757812 288.382812 C -223.144531 317.136719 -238.386719 344.054688 -257.484375 369.132812 C -276.550781 394.167969 -297.738281 416.316406 -321.046875 435.582031 C -344.398438 454.878906 -368.15625 469.941406 -392.320312 480.765625 C -416.671875 491.675781 -439.617188 497.128906 -461.15625 497.128906 C -463.898438 497.128906 -467.023438 497.03125 -470.527344 496.839844 C -474.148438 496.636719 -477.957031 496.136719 -481.953125 495.335938 L -481.179688 491.480469 L -477.261719 491.152344 C -476.925781 495.167969 -475.941406 498.644531 -474.308594 501.585938 L -473.8125 502.476562 L -473.8125 503.496094 C -473.8125 503.949219 -472.746094 506.070312 -470.605469 509.855469 C -468.472656 513.625 -464.28125 517.332031 -458.027344 520.980469 C -451.777344 524.628906 -442.710938 526.453125 -430.832031 526.453125 Z M -430.832031 534.320312 C -444.128906 534.320312 -454.515625 532.140625 -461.992188 527.777344 C -469.472656 523.414062 -474.625 518.730469 -477.453125 513.726562 C -480.273438 508.738281 -481.683594 505.328125 -481.683594 503.496094 L -477.75 503.496094 L -481.1875 505.40625 C -483.367188 501.480469 -484.671875 496.945312 -485.101562 491.804688 L -485.535156 486.597656 L -480.410156 487.621094 C -476.777344 488.347656 -473.339844 488.800781 -470.09375 488.984375 C -466.730469 489.167969 -463.753906 489.261719 -461.15625 489.261719 C -440.738281 489.261719 -418.863281 484.035156 -395.535156 473.585938 C -372.019531 463.050781 -348.863281 448.359375 -326.058594 429.515625 C -303.214844 410.636719 -282.445312 388.921875 -263.746094 364.367188 C -245.082031 339.859375 -230.191406 313.566406 -219.074219 285.488281 C -208.003906 257.535156 -202.472656 229.125 -202.472656 200.253906 C -202.472656 193.5 -202.753906 186.839844 -203.316406 180.277344 C -203.871094 173.792969 -204.890625 167.402344 -206.371094 161.105469 L -207.292969 157.183594 L -203.351562 156.351562 C -195.976562 154.800781 -188.695312 153.636719 -181.507812 152.859375 C -174.3125 152.082031 -166.828125 151.691406 -159.058594 151.691406 C -149.363281 151.691406 -139 152.371094 -127.96875 153.722656 C -116.894531 155.082031 -105.917969 157.316406 -95.042969 160.425781 L -91.847656 161.335938 L -92.210938 164.636719 C -96.070312 199.742188 -104.847656 233.113281 -118.542969 264.753906 C -132.203125 296.304688 -149.132812 325.832031 -169.332031 353.34375 C -189.503906 380.8125 -211.40625 405.597656 -235.042969 427.699219 C -258.664062 449.78125 -282.582031 468.800781 -306.800781 484.753906 C -331.054688 500.730469 -353.894531 512.964844 -375.3125 521.457031 C -396.949219 530.03125 -415.453125 534.320312 -430.832031 534.320312 Z M -544.1875 381.625 C -544.1875 402.445312 -541.339844 419.472656 -535.640625 432.707031 C -529.964844 445.890625 -522.96875 456.101562 -514.644531 463.335938 C -506.28125 470.609375 -497.585938 475.691406 -488.5625 478.578125 L -489.761719 482.324219 L -493.695312 482.324219 L -493.695312 479.464844 C -493.695312 460.703125 -489.234375 438.804688 -480.308594 413.777344 C -471.445312 388.917969 -458.742188 362.929688 -442.199219 335.808594 C -425.664062 308.695312 -405.960938 282.742188 -383.085938 257.949219 C -360.179688 233.113281 -334.671875 211.359375 -306.5625 192.6875 C -278.34375 173.9375 -248.1875 160.503906 -216.09375 152.382812 L -215.128906 156.199219 L -219.015625 156.816406 C -221.625 140.414062 -226.660156 124.46875 -234.121094 108.988281 C -241.566406 93.542969 -252.195312 78.726562 -266.007812 64.535156 L -268.355469 62.125 L -260.148438 51.179688 L -256.941406 54.46875 C -241.828125 69.972656 -229.609375 85.976562 -220.285156 102.484375 C -210.957031 119.003906 -204.152344 135.828125 -199.871094 152.957031 L -203.6875 153.910156 L -204.496094 150.058594 C -197.109375 148.503906 -189.433594 147.339844 -181.46875 146.5625 C -173.523438 145.785156 -165.671875 145.398438 -157.914062 145.398438 C -148.238281 145.398438 -137.992188 145.976562 -127.171875 147.136719 C -116.277344 148.304688 -105.199219 150.441406 -93.929688 153.550781 L -94.976562 157.34375 L -98.898438 157.015625 C -98.519531 152.488281 -98.238281 148.058594 -98.050781 143.726562 C -97.859375 139.394531 -97.765625 134.972656 -97.765625 130.449219 C -97.765625 101.207031 -101.582031 77.09375 -109.210938 58.109375 C -116.808594 39.214844 -126.578125 24.34375 -138.53125 13.496094 C -150.527344 2.609375 -163.230469 -5.132812 -176.640625 -9.722656 C -190.148438 -14.351562 -202.789062 -16.664062 -214.558594 -16.664062 C -237.632812 -16.664062 -261.59375 -10.964844 -286.4375 0.429688 C -311.5 11.921875 -336.390625 27.765625 -361.113281 47.960938 C -385.90625 68.210938 -409.28125 91.492188 -431.246094 117.808594 C -453.21875 144.140625 -472.730469 172.269531 -489.777344 202.199219 C -506.804688 232.089844 -520.136719 262.351562 -529.78125 292.980469 C -539.386719 323.492188 -544.1875 353.039062 -544.1875 381.625 Z M -552.058594 381.625 C -552.058594 352.234375 -547.132812 321.898438 -537.285156 290.617188 C -527.476562 259.453125 -513.917969 228.683594 -496.613281 198.304688 C -479.335938 167.96875 -459.558594 139.457031 -437.285156 112.769531 C -415 86.066406 -391.269531 62.433594 -366.09375 41.867188 C -340.847656 21.246094 -315.390625 5.050781 -289.71875 -6.722656 C -263.832031 -18.59375 -238.78125 -24.53125 -214.558594 -24.53125 C -201.914062 -24.53125 -188.425781 -22.078125 -174.089844 -17.167969 C -159.65625 -12.222656 -146.039062 -3.945312 -133.242188 7.671875 C -120.398438 19.328125 -109.957031 35.164062 -101.914062 55.175781 C -93.902344 75.101562 -89.898438 100.191406 -89.898438 130.449219 C -89.898438 135.085938 -89.996094 139.625 -90.1875 144.066406 C -90.382812 148.507812 -90.671875 153.039062 -91.058594 157.667969 L -91.449219 162.394531 L -96.023438 161.132812 C -106.878906 158.140625 -117.542969 156.082031 -128.007812 154.960938 C -138.550781 153.832031 -148.519531 153.265625 -157.914062 153.265625 C -165.414062 153.265625 -173.011719 153.640625 -180.703125 154.390625 C -188.378906 155.140625 -195.769531 156.261719 -202.875 157.757812 L -206.585938 158.539062 L -207.503906 154.863281 C -211.613281 138.425781 -218.15625 122.253906 -227.136719 106.351562 C -236.125 90.4375 -247.9375 74.976562 -262.574219 59.960938 L -259.757812 57.214844 L -256.609375 59.574219 L -260.042969 64.152344 L -263.191406 61.792969 L -260.371094 59.046875 C -245.960938 73.847656 -234.847656 89.355469 -227.035156 105.570312 C -219.238281 121.746094 -213.976562 138.417969 -211.246094 155.578125 L -210.679688 159.128906 L -214.164062 160.011719 C -245.390625 167.910156 -274.738281 180.988281 -302.207031 199.238281 C -329.789062 217.5625 -354.824219 238.914062 -377.304688 263.285156 C -399.824219 287.695312 -419.214844 313.234375 -435.484375 339.90625 C -451.746094 366.566406 -464.214844 392.070312 -472.898438 416.417969 C -481.519531 440.59375 -485.828125 461.609375 -485.828125 479.464844 L -485.828125 487.714844 L -490.960938 486.070312 C -501.011719 482.855469 -510.628906 477.257812 -519.808594 469.273438 C -529.03125 461.253906 -536.71875 450.101562 -542.867188 435.820312 C -548.992188 421.59375 -552.058594 403.527344 -552.058594 381.625 Z M -216.773438 185.378906 C -216.773438 181.628906 -216.867188 177.878906 -217.054688 174.132812 C -217.242188 170.382812 -217.523438 166.632812 -217.898438 162.882812 L -213.984375 162.492188 L -213.054688 166.3125 C -243.878906 173.832031 -272.734375 186.613281 -299.617188 204.664062 C -326.621094 222.792969 -350.976562 243.9375 -372.691406 268.109375 C -394.457031 292.332031 -413.191406 317.5 -428.890625 343.601562 C -444.585938 369.699219 -456.679688 394.636719 -465.175781 418.421875 C -473.605469 442.027344 -477.820312 462.371094 -477.820312 479.464844 L -477.820312 484.042969 L -481.753906 484.042969 L -480.507812 480.308594 C -478.625 480.9375 -476.847656 481.253906 -475.171875 481.253906 L -468.59375 481.253906 C -449.375 481.253906 -428.5 475.667969 -405.972656 464.496094 C -383.207031 453.207031 -360.699219 437.761719 -338.457031 418.152344 C -316.167969 398.511719 -295.863281 376.03125 -277.535156 350.710938 C -259.230469 325.425781 -244.511719 298.632812 -233.378906 270.332031 C -222.308594 242.1875 -216.773438 213.871094 -216.773438 185.378906 Z M -208.90625 185.378906 C -208.90625 214.863281 -214.625 244.140625 -226.058594 273.210938 C -237.433594 302.128906 -252.464844 329.5 -271.160156 355.324219 C -289.832031 381.117188 -310.527344 404.027344 -333.253906 424.054688 C -356.015625 444.121094 -379.09375 459.949219 -402.480469 471.546875 C -426.105469 483.261719 -448.144531 489.121094 -468.59375 489.121094 L -475.171875 489.121094 C -477.695312 489.121094 -480.304688 488.671875 -482.996094 487.773438 L -485.6875 486.878906 L -485.6875 479.464844 C -485.6875 461.464844 -481.320312 440.234375 -472.585938 415.777344 C -463.914062 391.5 -451.597656 366.089844 -435.632812 339.546875 C -419.675781 313.015625 -400.644531 287.449219 -378.546875 262.851562 C -356.394531 238.195312 -331.546875 216.621094 -304.003906 198.132812 C -276.34375 179.5625 -246.648438 166.410156 -214.917969 158.667969 L -210.519531 157.597656 L -210.070312 162.101562 C -209.683594 165.980469 -209.390625 169.859375 -209.199219 173.738281 C -209.003906 177.617188 -208.90625 181.496094 -208.90625 185.378906 Z M -5.21875 266.625 C -5.21875 288.917969 -10.480469 311.957031 -21.003906 335.730469 C -31.480469 359.390625 -46.589844 381.96875 -66.332031 403.457031 C -86.070312 424.933594 -109.953125 443.5 -137.972656 459.15625 C -166.003906 474.8125 -197.777344 485.925781 -233.296875 492.488281 L -237.234375 493.214844 L -239.679688 478.527344 L -235.808594 477.875 C -202.308594 472.226562 -172.3125 461.984375 -145.820312 447.140625 C -119.277344 432.269531 -96.609375 414.871094 -77.8125 394.945312 C -59.050781 375.058594 -44.804688 354.070312 -35.066406 331.980469 C -25.375 309.980469 -20.527344 288.574219 -20.527344 267.769531 C -20.527344 248.621094 -25.125 230.855469 -34.324219 214.480469 C -43.460938 198.21875 -57.773438 185.308594 -77.257812 175.75 L -75.523438 172.21875 L -71.625 172.734375 C -76.25 207.816406 -85.601562 241.265625 -99.675781 273.078125 C -113.722656 304.824219 -131.039062 334.355469 -151.625 361.679688 C -172.183594 388.960938 -194.664062 413.652344 -219.070312 435.75 C -243.460938 457.839844 -268.25 476.761719 -293.429688 492.527344 C -318.648438 508.3125 -342.925781 520.449219 -366.265625 528.933594 C -389.773438 537.484375 -410.726562 541.757812 -429.113281 541.757812 C -446.753906 541.757812 -461.261719 537.59375 -472.632812 529.269531 C -484.242188 520.769531 -491.0625 507.558594 -493.101562 489.636719 L -489.191406 489.191406 L -490.308594 492.964844 C -511.855469 486.578125 -528.898438 473.433594 -541.4375 453.527344 C -553.859375 433.8125 -560.066406 410.226562 -560.066406 382.769531 C -560.066406 353 -555.046875 322.09375 -545.011719 290.050781 C -535.011719 258.125 -521.265625 226.691406 -503.773438 195.742188 C -486.300781 164.832031 -466.238281 135.746094 -443.582031 108.484375 C -420.914062 81.203125 -396.703125 57.089844 -370.949219 36.140625 C -345.136719 15.144531 -319.011719 -1.433594 -292.582031 -13.585938 C -265.933594 -25.84375 -239.925781 -31.96875 -214.558594 -31.96875 C -199.632812 -31.96875 -183.765625 -29.136719 -166.957031 -23.46875 C -150.082031 -17.777344 -134.210938 -8.667969 -119.335938 3.855469 C -104.386719 16.445312 -92.210938 33.117188 -82.8125 53.875 C -73.421875 74.609375 -68.730469 100.132812 -68.730469 130.449219 C -68.730469 136.261719 -68.921875 142.070312 -69.308594 147.878906 C -69.699219 153.683594 -70.277344 159.492188 -71.054688 165.300781 L -74.953125 164.78125 L -73.316406 161.203125 C -50.066406 171.84375 -32.894531 186.476562 -21.796875 205.105469 C -10.746094 223.652344 -5.21875 244.160156 -5.21875 266.625 Z M -13.089844 266.625 C -13.089844 245.605469 -18.242188 226.441406 -28.554688 209.132812 C -38.816406 191.90625 -54.828125 178.316406 -76.589844 168.355469 L -79.234375 167.144531 L -78.851562 164.261719 C -78.101562 158.625 -77.535156 152.988281 -77.160156 147.355469 C -76.785156 141.71875 -76.597656 136.085938 -76.597656 130.449219 C -76.597656 101.265625 -81.058594 76.820312 -89.980469 57.121094 C -98.886719 37.445312 -110.363281 21.699219 -124.402344 9.875 C -138.515625 -2.011719 -153.539062 -10.640625 -169.46875 -16.011719 C -185.464844 -21.40625 -200.492188 -24.101562 -214.558594 -24.101562 C -238.777344 -24.101562 -263.691406 -18.214844 -289.296875 -6.4375 C -315.125 5.4375 -340.6875 21.664062 -365.984375 42.246094 C -391.34375 62.871094 -415.191406 86.625 -437.53125 113.511719 C -459.886719 140.414062 -479.683594 169.113281 -496.921875 199.613281 C -514.140625 230.078125 -527.667969 261.007812 -537.503906 292.402344 C -547.300781 323.679688 -552.199219 353.800781 -552.199219 382.769531 C -552.199219 408.714844 -546.394531 430.902344 -534.78125 449.332031 C -523.292969 467.566406 -507.722656 479.597656 -488.074219 485.417969 L -485.578125 486.160156 L -485.28125 488.746094 C -483.503906 504.390625 -477.738281 515.78125 -467.984375 522.921875 C -457.996094 530.234375 -445.039062 533.890625 -429.113281 533.890625 C -411.648438 533.890625 -391.59375 529.773438 -368.953125 521.539062 C -346.136719 513.242188 -322.355469 501.347656 -297.605469 485.855469 C -272.816406 470.339844 -248.398438 451.695312 -224.351562 429.917969 C -200.3125 408.152344 -178.167969 383.828125 -157.910156 356.945312 C -137.683594 330.105469 -120.671875 301.085938 -106.871094 269.894531 C -93.101562 238.769531 -83.953125 206.039062 -79.425781 171.703125 L -78.707031 166.273438 L -73.792969 168.6875 C -52.84375 178.960938 -37.402344 192.945312 -27.464844 210.628906 C -17.59375 228.199219 -12.660156 247.246094 -12.660156 267.769531 C -12.660156 289.679688 -17.730469 312.140625 -27.867188 335.152344 C -37.96875 358.070312 -52.707031 379.800781 -72.089844 400.347656 C -91.4375 420.855469 -114.730469 438.738281 -141.972656 454.003906 C -169.261719 469.292969 -200.105469 479.835938 -234.5 485.632812 L -235.15625 481.753906 L -231.273438 481.105469 L -230.128906 487.972656 L -234.011719 488.617188 L -234.726562 484.75 C -200.058594 478.34375 -169.085938 467.523438 -141.808594 452.285156 C -114.523438 437.042969 -91.296875 418.992188 -72.128906 398.132812 C -52.964844 377.28125 -38.324219 355.417969 -28.199219 332.546875 C -18.125 309.785156 -13.089844 287.8125 -13.089844 266.625 Z M -473.8125 503.496094 L -473.8125 504.066406 L -481.683594 504.066406 L -481.683594 503.496094 Z M -481.683594 503.496094 L -473.8125 503.496094 L -473.8125 504.066406 L -481.683594 504.066406 Z M -481.683594 503.496094 "/></g></g></g><g fill="#000000" fill-opacity="1"><g transform="translate(34.532978, 39.666972)"><g/></g></g><g fill="#000000" fill-opacity="1"><g transform="translate(574.052045, 39.666972)"><g><path d="M -430.828125 530.390625 C -415.953125 530.390625 -397.929688 526.191406 -376.765625 517.796875 C -355.597656 509.410156 -333 497.300781 -308.96875 481.46875 C -284.9375 465.632812 -261.191406 446.75 -237.734375 424.8125 C -214.273438 402.882812 -192.53125 378.285156 -172.5 351.015625 C -152.476562 323.742188 -135.695312 294.46875 -122.15625 263.1875 C -108.613281 231.914062 -99.9375 198.921875 -96.125 164.203125 C -106.800781 161.148438 -117.570312 158.957031 -128.4375 157.625 C -139.3125 156.289062 -149.519531 155.625 -159.0625 155.625 C -166.6875 155.625 -174.023438 156.003906 -181.078125 156.765625 C -188.140625 157.535156 -195.296875 158.679688 -202.546875 160.203125 C -201.015625 166.691406 -199.960938 173.269531 -199.390625 179.9375 C -198.816406 186.613281 -198.53125 193.382812 -198.53125 200.25 C -198.53125 229.625 -204.15625 258.519531 -215.40625 286.9375 C -226.664062 315.351562 -241.734375 341.957031 -260.609375 366.75 C -279.492188 391.539062 -300.472656 413.472656 -323.546875 432.546875 C -346.628906 451.617188 -370.085938 466.492188 -393.921875 477.171875 C -417.765625 487.859375 -440.175781 493.203125 -461.15625 493.203125 C -463.820312 493.203125 -466.875 493.101562 -470.3125 492.90625 C -473.75 492.71875 -477.375 492.242188 -481.1875 491.484375 C -480.800781 496.054688 -479.65625 500.0625 -477.75 503.5 C -477.75 504.644531 -476.507812 507.410156 -474.03125 511.796875 C -471.550781 516.179688 -466.878906 520.375 -460.015625 524.375 C -453.148438 528.382812 -443.421875 530.390625 -430.828125 530.390625 Z M -548.125 381.625 C -548.125 402.988281 -545.164062 420.535156 -539.25 434.265625 C -533.34375 447.992188 -526 458.671875 -517.21875 466.296875 C -508.445312 473.929688 -499.296875 479.273438 -489.765625 482.328125 L -489.765625 479.46875 C -489.765625 461.15625 -485.378906 439.695312 -476.609375 415.09375 C -467.835938 390.488281 -455.25 364.738281 -438.84375 337.84375 C -422.4375 310.957031 -402.882812 285.210938 -380.1875 260.609375 C -357.5 236.015625 -332.234375 214.46875 -304.390625 195.96875 C -276.546875 177.46875 -246.789062 164.210938 -215.125 156.203125 C -217.800781 139.421875 -222.953125 123.113281 -230.578125 107.28125 C -238.203125 91.445312 -249.070312 76.285156 -263.1875 61.796875 L -259.765625 57.21875 C -244.878906 72.476562 -232.859375 88.210938 -223.703125 104.421875 C -214.554688 120.628906 -207.882812 137.125 -203.6875 153.90625 C -196.4375 152.382812 -188.898438 151.238281 -181.078125 150.46875 C -173.265625 149.707031 -165.546875 149.328125 -157.921875 149.328125 C -148.378906 149.328125 -138.269531 149.898438 -127.59375 151.046875 C -116.914062 152.191406 -106.046875 154.289062 -94.984375 157.34375 C -94.597656 152.769531 -94.304688 148.285156 -94.109375 143.890625 C -93.921875 139.503906 -93.828125 135.023438 -93.828125 130.453125 C -93.828125 100.703125 -97.738281 76.097656 -105.5625 56.640625 C -113.382812 37.191406 -123.492188 21.835938 -135.890625 10.578125 C -148.285156 -0.671875 -161.441406 -8.675781 -175.359375 -13.4375 C -189.285156 -18.207031 -202.351562 -20.59375 -214.5625 -20.59375 C -238.207031 -20.59375 -262.710938 -14.773438 -288.078125 -3.140625 C -313.441406 8.484375 -338.613281 24.5 -363.59375 44.90625 C -388.582031 65.320312 -412.140625 88.78125 -434.265625 115.28125 C -456.390625 141.789062 -476.035156 170.113281 -493.203125 200.25 C -510.367188 230.382812 -523.8125 260.898438 -533.53125 291.796875 C -543.257812 322.691406 -548.125 352.632812 -548.125 381.625 Z M -212.84375 185.375 C -212.84375 181.5625 -212.9375 177.75 -213.125 173.9375 C -213.320312 170.125 -213.609375 166.3125 -213.984375 162.5 C -245.265625 170.125 -274.539062 183.085938 -301.8125 201.390625 C -329.082031 219.703125 -353.679688 241.0625 -375.609375 265.46875 C -397.546875 289.882812 -416.429688 315.253906 -432.265625 341.578125 C -448.097656 367.898438 -460.300781 393.070312 -468.875 417.09375 C -477.457031 441.125 -481.75 461.914062 -481.75 479.46875 L -481.75 484.046875 C -479.46875 484.804688 -477.273438 485.1875 -475.171875 485.1875 C -473.078125 485.1875 -470.882812 485.1875 -468.59375 485.1875 C -448.757812 485.1875 -427.300781 479.460938 -404.21875 468.015625 C -381.144531 456.578125 -358.351562 440.941406 -335.84375 421.109375 C -313.34375 401.273438 -292.84375 378.578125 -274.34375 353.015625 C -255.84375 327.460938 -240.96875 300.378906 -229.71875 271.765625 C -218.46875 243.160156 -212.84375 214.363281 -212.84375 185.375 Z M -9.15625 266.625 C -9.15625 288.363281 -14.300781 310.867188 -24.59375 334.140625 C -34.894531 357.410156 -49.769531 379.628906 -69.21875 400.796875 C -88.675781 421.960938 -112.234375 440.269531 -139.890625 455.71875 C -167.546875 471.164062 -198.921875 482.132812 -234.015625 488.625 L -235.15625 481.75 C -201.207031 476.03125 -170.785156 465.632812 -143.890625 450.5625 C -117.003906 435.5 -94.023438 417.859375 -74.953125 397.640625 C -55.878906 377.429688 -41.382812 356.070312 -31.46875 333.5625 C -21.550781 311.0625 -16.59375 289.128906 -16.59375 267.765625 C -16.59375 247.929688 -21.359375 229.523438 -30.890625 212.546875 C -40.429688 195.578125 -55.3125 182.132812 -75.53125 172.21875 C -80.101562 206.925781 -89.347656 240.015625 -103.265625 271.484375 C -117.191406 302.953125 -134.359375 332.226562 -154.765625 359.3125 C -175.171875 386.394531 -197.484375 410.898438 -221.703125 432.828125 C -245.929688 454.765625 -270.535156 473.550781 -295.515625 489.1875 C -320.503906 504.832031 -344.535156 516.847656 -367.609375 525.234375 C -390.679688 533.628906 -411.179688 537.828125 -429.109375 537.828125 C -445.898438 537.828125 -459.632812 533.914062 -470.3125 526.09375 C -480.988281 518.28125 -487.28125 505.976562 -489.1875 489.1875 C -509.789062 483.082031 -526.097656 470.492188 -538.109375 451.421875 C -550.128906 432.359375 -556.140625 409.472656 -556.140625 382.765625 C -556.140625 353.398438 -551.179688 322.882812 -541.265625 291.21875 C -531.347656 259.5625 -517.707031 228.378906 -500.34375 197.671875 C -482.988281 166.972656 -463.054688 138.082031 -440.546875 111 C -418.046875 83.914062 -394.019531 59.976562 -368.46875 39.1875 C -342.914062 18.40625 -317.070312 2.007812 -290.9375 -10 C -264.8125 -22.019531 -239.351562 -28.03125 -214.5625 -28.03125 C -200.0625 -28.03125 -184.609375 -25.265625 -168.203125 -19.734375 C -151.804688 -14.203125 -136.359375 -5.335938 -121.859375 6.859375 C -107.367188 19.066406 -95.546875 35.28125 -86.390625 55.5 C -77.234375 75.71875 -72.65625 100.703125 -72.65625 130.453125 C -72.65625 136.171875 -72.847656 141.890625 -73.234375 147.609375 C -73.617188 153.335938 -74.191406 159.0625 -74.953125 164.78125 C -52.441406 175.082031 -35.847656 189.195312 -25.171875 207.125 C -14.492188 225.050781 -9.15625 244.882812 -9.15625 266.625 Z M -477.75 503.5 L -477.75 504.0625 C -477.75 504.0625 -477.75 503.875 -477.75 503.5 Z M -477.75 503.5 "/></g></g></g><g fill="#000000" fill-opacity="1"><g transform="translate(34.532978, 39.666972)"><g/></g></g></g></g></g><g transform="matrix(1, 0, 0, 1, 263, 22)"><g clip-path="url(#af7ff7f052)"><g fill="#000000" fill-opacity="1"><g transform="translate(0.690824, 445.84137)"><g><path d="M 422.664062 -324.898438 C 423.714844 -324.746094 425.046875 -324.414062 426.652344 -323.902344 C 428.851562 -323.203125 429.953125 -321.53125 429.953125 -318.882812 C 429.953125 -316.082031 428.8125 -314.335938 426.53125 -313.644531 C 424.835938 -313.128906 423.175781 -312.796875 421.546875 -312.648438 L 421.414062 -314.078125 L 421.617188 -312.65625 C 420.617188 -312.511719 419.304688 -312.371094 417.675781 -312.230469 C 416.066406 -312.089844 414.210938 -311.949219 412.113281 -311.808594 L 397.597656 -310.871094 L 379.324219 -309.722656 C 368.878906 -309.164062 357.359375 -308.46875 344.765625 -307.632812 C 332.171875 -306.796875 319.402344 -305.894531 306.460938 -304.917969 C 293.519531 -303.945312 281.246094 -302.902344 269.628906 -301.789062 C 258.027344 -300.679688 247.886719 -299.496094 239.207031 -298.246094 C 230.617188 -297.011719 224.425781 -295.648438 220.628906 -294.15625 C 201.152344 -286.886719 185.445312 -273.574219 173.503906 -254.226562 C 161.5 -234.765625 153.210938 -208.707031 148.644531 -176.050781 C 145.871094 -156.617188 144.273438 -136.207031 143.855469 -114.828125 C 143.441406 -93.417969 143.753906 -71.558594 144.796875 -49.246094 C 145.839844 -26.90625 146.988281 -4.601562 148.238281 17.667969 L 150.640625 60.792969 C 151.410156 74.808594 151.863281 88.226562 152 101.058594 C 152 102.703125 151.539062 104.011719 150.613281 104.984375 C 149.710938 105.9375 148.421875 106.5 146.746094 106.675781 L 146.671875 106.683594 L 146.390625 106.683594 C 145.019531 106.683594 143.773438 106.128906 142.660156 105.011719 C 141.542969 103.894531 140.984375 102.582031 140.984375 101.074219 C 140.847656 88.296875 140.394531 74.992188 139.628906 61.160156 L 137.226562 18.25 C 135.976562 -3.058594 134.859375 -25.023438 133.886719 -47.65625 C 132.910156 -70.308594 132.597656 -92.679688 132.945312 -114.773438 C 133.292969 -136.898438 134.867188 -157.808594 137.65625 -177.496094 C 147.484375 -246.277344 173.824219 -288.632812 216.679688 -304.566406 C 220.382812 -305.988281 225.902344 -307.300781 233.238281 -308.5 C 240.503906 -309.6875 249.023438 -310.804688 258.792969 -311.851562 C 268.550781 -312.898438 279.039062 -313.871094 290.261719 -314.777344 C 301.472656 -315.683594 312.863281 -316.519531 324.425781 -317.285156 L 358.046875 -319.476562 L 358.140625 -318.046875 L 358.113281 -316.609375 C 344.195312 -316.886719 327.078125 -317.132812 306.753906 -317.339844 C 286.433594 -317.550781 262.179688 -317.652344 233.992188 -317.652344 L 135.84375 -317.550781 L 8.152344 -316.820312 C 6.660156 -316.820312 5.359375 -317.328125 4.25 -318.34375 C 3.105469 -319.394531 2.53125 -320.6875 2.53125 -322.222656 C 2.53125 -323.757812 3.105469 -325.050781 4.25 -326.101562 C 5.3125 -327.070312 6.550781 -327.644531 7.964844 -327.824219 L 8.050781 -327.835938 L 216.132812 -328.667969 C 274.476562 -328.667969 321.265625 -328.320312 356.5 -327.625 C 369.171875 -327.484375 380.179688 -327.242188 389.519531 -326.894531 C 398.851562 -326.546875 406.441406 -326.230469 412.296875 -325.953125 C 414.683594 -325.8125 416.71875 -325.671875 418.402344 -325.53125 C 420.152344 -325.386719 421.617188 -325.164062 422.808594 -324.867188 L 422.460938 -323.476562 Z M 422.257812 -322.054688 L 422.183594 -322.0625 L 422.113281 -322.082031 C 421.074219 -322.34375 419.757812 -322.539062 418.164062 -322.671875 C 416.503906 -322.808594 414.503906 -322.945312 412.160156 -323.085938 C 406.316406 -323.363281 398.734375 -323.675781 389.410156 -324.023438 C 380.097656 -324.371094 369.105469 -324.613281 356.441406 -324.753906 C 321.230469 -325.449219 274.460938 -325.796875 216.144531 -325.796875 L 8.148438 -324.964844 L 8.144531 -326.398438 L 8.324219 -324.972656 C 7.511719 -324.871094 6.800781 -324.542969 6.191406 -323.984375 C 5.664062 -323.5 5.402344 -322.914062 5.402344 -322.222656 C 5.402344 -321.53125 5.664062 -320.941406 6.191406 -320.460938 C 6.75 -319.949219 7.398438 -319.691406 8.136719 -319.691406 L 135.839844 -320.421875 L 233.992188 -320.527344 C 262.1875 -320.527344 286.453125 -320.421875 306.785156 -320.210938 C 327.113281 -320.003906 344.242188 -319.757812 358.167969 -319.480469 L 358.234375 -316.613281 L 324.613281 -314.421875 C 313.066406 -313.65625 301.691406 -312.820312 290.492188 -311.914062 C 279.296875 -311.011719 268.832031 -310.039062 259.101562 -308.996094 C 249.382812 -307.953125 240.914062 -306.84375 233.703125 -305.664062 C 226.558594 -304.496094 221.21875 -303.234375 217.683594 -301.871094 C 175.894531 -286.339844 150.164062 -244.746094 140.5 -177.09375 C 137.726562 -157.523438 136.164062 -136.734375 135.816406 -114.730469 C 135.46875 -92.691406 135.78125 -70.375 136.753906 -47.777344 C 137.730469 -25.164062 138.84375 -3.207031 140.09375 18.085938 L 142.496094 61.003906 C 143.265625 74.875 143.71875 88.234375 143.855469 101.074219 C 143.855469 101.789062 144.132812 102.425781 144.6875 102.980469 C 145.246094 103.535156 145.8125 103.8125 146.390625 103.8125 L 146.597656 103.8125 L 146.597656 105.25 L 146.445312 103.820312 C 147.417969 103.71875 148.113281 103.449219 148.53125 103.007812 C 148.929688 102.589844 149.128906 101.949219 149.128906 101.089844 C 148.992188 88.300781 148.539062 74.921875 147.773438 60.953125 L 145.371094 17.832031 C 144.121094 -4.449219 142.972656 -26.761719 141.925781 -49.113281 C 140.878906 -71.488281 140.566406 -93.414062 140.984375 -114.882812 C 141.402344 -136.382812 143.007812 -156.902344 145.800781 -176.449219 C 150.425781 -209.503906 158.84375 -235.933594 171.0625 -255.734375 C 183.347656 -275.644531 199.519531 -289.339844 219.582031 -296.828125 C 223.582031 -298.402344 229.988281 -299.820312 238.800781 -301.089844 C 247.523438 -302.347656 257.707031 -303.53125 269.355469 -304.648438 C 280.992188 -305.761719 293.285156 -306.808594 306.242188 -307.78125 C 319.195312 -308.757812 331.972656 -309.664062 344.578125 -310.5 C 357.183594 -311.335938 368.703125 -312.03125 379.140625 -312.585938 L 397.410156 -313.734375 L 411.921875 -314.675781 C 414 -314.8125 415.835938 -314.953125 417.429688 -315.089844 C 419.003906 -315.226562 420.265625 -315.363281 421.210938 -315.5 L 421.25 -315.503906 L 421.285156 -315.507812 C 422.71875 -315.636719 424.1875 -315.933594 425.695312 -316.390625 C 426.617188 -316.671875 427.078125 -317.5 427.078125 -318.882812 C 427.078125 -320.128906 426.648438 -320.890625 425.785156 -321.167969 C 424.328125 -321.628906 423.152344 -321.925781 422.257812 -322.054688 Z M 422.257812 -322.054688 "/></g></g></g><g fill="#000000" fill-opacity="1"><g transform="translate(0.690824, 445.84137)"><g><path d="M 422.453125 -323.46875 C 423.429688 -323.332031 424.6875 -323.019531 426.21875 -322.53125 C 427.75 -322.039062 428.515625 -320.820312 428.515625 -318.875 C 428.515625 -316.789062 427.710938 -315.503906 426.109375 -315.015625 C 424.515625 -314.523438 422.953125 -314.210938 421.421875 -314.078125 C 420.441406 -313.941406 419.148438 -313.800781 417.546875 -313.65625 C 415.953125 -313.519531 414.109375 -313.382812 412.015625 -313.25 C 407.984375 -312.96875 403.144531 -312.648438 397.5 -312.296875 C 391.863281 -311.953125 385.773438 -311.570312 379.234375 -311.15625 C 368.785156 -310.59375 357.257812 -309.894531 344.65625 -309.0625 C 332.0625 -308.226562 319.289062 -307.320312 306.34375 -306.34375 C 293.40625 -305.375 281.125 -304.332031 269.5 -303.21875 C 257.875 -302.101562 247.707031 -300.914062 239 -299.65625 C 230.300781 -298.40625 224.003906 -297.015625 220.109375 -295.484375 C 200.335938 -288.109375 184.394531 -274.601562 172.28125 -254.96875 C 160.164062 -235.34375 151.8125 -209.101562 147.21875 -176.25 C 144.4375 -156.757812 142.835938 -136.296875 142.421875 -114.859375 C 142.003906 -93.421875 142.316406 -71.523438 143.359375 -49.171875 C 144.398438 -26.828125 145.550781 -4.519531 146.8125 17.75 C 147.644531 32.507812 148.441406 46.882812 149.203125 60.875 C 149.972656 74.863281 150.425781 88.265625 150.5625 101.078125 C 150.5625 103.578125 149.238281 104.96875 146.59375 105.25 C 146.59375 105.25 146.523438 105.25 146.390625 105.25 C 145.410156 105.25 144.503906 104.832031 143.671875 104 C 142.835938 103.164062 142.421875 102.191406 142.421875 101.078125 C 142.285156 88.265625 141.832031 74.929688 141.0625 61.078125 C 140.300781 47.222656 139.5 32.921875 138.65625 18.171875 C 137.40625 -3.128906 136.289062 -25.09375 135.3125 -47.71875 C 134.34375 -70.34375 134.03125 -92.6875 134.375 -114.75 C 134.726562 -136.8125 136.296875 -157.660156 139.078125 -177.296875 C 148.828125 -245.515625 174.863281 -287.488281 217.1875 -303.21875 C 220.800781 -304.613281 226.226562 -305.898438 233.46875 -307.078125 C 240.707031 -308.265625 249.195312 -309.378906 258.9375 -310.421875 C 268.6875 -311.460938 279.164062 -312.4375 290.375 -313.34375 C 301.582031 -314.25 312.960938 -315.082031 324.515625 -315.84375 C 336.078125 -316.613281 347.285156 -317.347656 358.140625 -318.046875 C 344.210938 -318.328125 327.085938 -318.570312 306.765625 -318.78125 C 286.441406 -318.988281 262.179688 -319.09375 233.984375 -319.09375 C 205.796875 -319.09375 173.082031 -319.054688 135.84375 -318.984375 C 98.601562 -318.910156 56.035156 -318.664062 8.140625 -318.25 C 7.023438 -318.25 6.050781 -318.628906 5.21875 -319.390625 C 4.382812 -320.160156 3.96875 -321.101562 3.96875 -322.21875 C 3.96875 -323.332031 4.382812 -324.269531 5.21875 -325.03125 C 6.050781 -325.800781 7.023438 -326.257812 8.140625 -326.40625 C 88.472656 -326.957031 157.804688 -327.234375 216.140625 -327.234375 C 274.472656 -327.234375 321.25 -326.882812 356.46875 -326.1875 C 369.132812 -326.050781 380.128906 -325.804688 389.453125 -325.453125 C 398.785156 -325.109375 406.378906 -324.796875 412.234375 -324.515625 C 414.597656 -324.378906 416.613281 -324.238281 418.28125 -324.09375 C 419.945312 -323.957031 421.335938 -323.75 422.453125 -323.46875 Z M 422.453125 -323.46875 "/></g></g></g></g></g></svg>